<svg width="500" height="251" fill="none" xmlns="http://www.w3.org/2000/svg"><g clip-path="url(#a)"><path d="M65.16 168.06c-1.65 0-2.47-.47-2.47-1.41v-.24c0-.55.73-1.39 2.18-2.53 1.45-1.14 2.18-2.49 2.18-4.06V92.68c0-1.02-.24-1.88-.71-2.59s-.96-1.22-1.47-1.53c-.51-.31-1-.69-1.47-1.12-.47-.43-.71-.88-.71-1.35v-.24c0-.94.71-1.41 2.12-1.41h49.59c1.57 0 2.55.9 2.94 2.71l2.83 11.66c.39 1.57-.12 2.36-1.53 2.36h-.47c-1.02 0-2.16-.98-3.42-2.94a77.623 77.623 0 0 0-4.24-5.95c-1.57-2-3.26-3-5.06-3H81.19c-2.28 0-3.42 1.26-3.42 3.77v33.45h21.79c.86 0 1.65-.35 2.36-1.06.71-.71 1.24-1.51 1.59-2.41.35-.9.77-1.71 1.24-2.41.47-.7.98-1.06 1.53-1.06h.71c1.02 0 1.53.67 1.53 2v14.49c0 1.34-.51 2-1.53 2h-.71c-.55 0-1.06-.33-1.53-1-.47-.67-.88-1.43-1.24-2.3-.35-.86-.88-1.63-1.59-2.3-.71-.67-1.49-1-2.36-1H77.77v28.39c0 1.18.37 2.16 1.12 2.94.75.79 1.51 1.45 2.3 2 .78.55 1.18 1.1 1.18 1.65v.24c0 .94-.79 1.41-2.36 1.41H65.17l-.01-.02ZM190.24 159.82c.86 1.26 1.94 2.3 3.24 3.12 1.3.82 2.32 1.45 3.06 1.88.75.43 1.12.96 1.12 1.59v.24c0 .94-.79 1.41-2.36 1.41h-16.37c-1.57 0-2.36-.47-2.36-1.41v-.24c0-.55.41-1.14 1.24-1.77.82-.63 1.39-1.2 1.71-1.71.31-.51.12-1.55-.59-3.12l-17.67-24.38c-.63.08-1.61.12-2.94.12l-14.13.24v24.03c0 1.18.37 2.16 1.12 2.94.75.79 1.51 1.45 2.3 2 .78.55 1.18 1.1 1.18 1.65v.24c0 .94-.79 1.41-2.36 1.41h-14.84c-1.57 0-2.36-.47-2.36-1.41v-.24c0-.55.71-1.39 2.12-2.53 1.41-1.14 2.12-2.49 2.12-4.06V92.68c0-1.57-.71-2.92-2.12-4.06-1.41-1.14-2.12-1.98-2.12-2.53v-.24c0-.94.78-1.41 2.36-1.41h24.15c10.6 0 19.16 2.18 25.68 6.54 6.52 4.36 9.81 10.82 9.89 19.38 0 5.5-1.73 10.33-5.18 14.49-3.46 4.16-8.36 7.15-14.72 8.95l18.85 26.03-.02-.01Zm-32.98-28.97c6.91 0 12.48-1.69 16.73-5.06 4.24-3.38 6.36-8.01 6.36-13.9 0-7.38-2.41-12.99-7.24-16.84-4.83-3.85-10.82-5.77-17.96-5.77h-7.89c-2.04 0-3.06 1.34-3.06 4v32.04c0 3.69 1.65 5.54 4.95 5.54h8.13l-.02-.01ZM207.91 168.06c-1.65 0-2.47-.47-2.47-1.41v-.24c0-.55.73-1.39 2.18-2.53 1.45-1.14 2.18-2.53 2.18-4.18V92.8c0-1.26-.35-2.3-1.06-3.12-.71-.82-1.43-1.49-2.18-2-.75-.51-1.12-1.04-1.12-1.59v-.35c0-.86.71-1.3 2.12-1.3h49.94c1.57 0 2.55.86 2.94 2.59l2.83 11.66c.31 1.57-.16 2.36-1.41 2.36h-.59c-.79 0-1.67-.61-2.65-1.83-.98-1.22-1.88-2.57-2.71-4.06-.82-1.49-1.88-2.85-3.18-4.06-1.3-1.22-2.65-1.83-4.06-1.83H223.7c-2.2 0-3.3 1.34-3.3 4v29.56h21.44c1.02 0 1.88-.35 2.59-1.06.71-.71 1.24-1.51 1.59-2.41.35-.9.75-1.71 1.18-2.41.43-.71.92-1.06 1.47-1.06h.47c1.02 0 1.53.67 1.53 2v14.49c0 1.34-.51 2-1.53 2h-.47c-.55 0-1.04-.35-1.47-1.06-.43-.71-.82-1.47-1.18-2.3-.36-.83-.88-1.59-1.59-2.3-.71-.71-1.57-1.06-2.59-1.06H220.4l-.12 30.51c0 1.41.37 2.61 1.12 3.59.75.98 1.83 1.47 3.24 1.47h27.68c1.41 0 2.75-.63 4-1.88s2.26-2.65 3-4.18c.75-1.53 1.61-2.92 2.59-4.18.98-1.26 1.9-1.88 2.77-1.88h.71c.55 0 .96.24 1.24.71.27.47.33 1.02.18 1.65l-2.83 11.9c-.39 1.81-1.41 2.71-3.06 2.71h-53l-.01-.02ZM278.58 168.06c-1.65 0-2.47-.47-2.47-1.41v-.24c0-.55.73-1.39 2.18-2.53 1.45-1.14 2.18-2.53 2.18-4.18V92.8c0-1.26-.35-2.3-1.06-3.12-.71-.82-1.43-1.49-2.18-2-.75-.51-1.12-1.04-1.12-1.59v-.35c0-.86.71-1.3 2.12-1.3h49.94c1.57 0 2.55.86 2.94 2.59l2.83 11.66c.31 1.57-.16 2.36-1.41 2.36h-.59c-.79 0-1.67-.61-2.65-1.83-.98-1.22-1.88-2.57-2.71-4.06-.82-1.49-1.88-2.85-3.18-4.06-1.3-1.22-2.65-1.83-4.06-1.83h-24.97c-2.2 0-3.3 1.34-3.3 4v29.56h21.44c1.02 0 1.88-.35 2.59-1.06.71-.71 1.24-1.51 1.59-2.41.35-.9.75-1.71 1.18-2.41.43-.71.92-1.06 1.47-1.06h.47c1.02 0 1.53.67 1.53 2v14.49c0 1.34-.51 2-1.53 2h-.47c-.55 0-1.04-.35-1.47-1.06-.43-.71-.82-1.47-1.18-2.3-.36-.83-.88-1.59-1.59-2.3-.71-.71-1.57-1.06-2.59-1.06h-21.44l-.12 30.51c0 1.41.37 2.61 1.12 3.59.75.98 1.83 1.47 3.24 1.47h27.68c1.41 0 2.75-.63 4-1.88s2.26-2.65 3-4.18c.75-1.53 1.61-2.92 2.59-4.18.98-1.26 1.9-1.88 2.77-1.88h.71c.55 0 .96.24 1.24.71.27.47.33 1.02.18 1.65l-2.83 11.9c-.39 1.81-1.41 2.71-3.06 2.71h-53l-.01-.02Z" fill="#6442C2"/><path d="M500 246.37H20v4h480v-4Z" fill="#000"/><path d="M125.65 1h265.06v128.05h14.35c40.71 0 73.71 33 73.71 73.7v35.32H45.65" stroke="#000" stroke-width="2" stroke-miterlimit="10"/><path d="M403.21 138.01h-5.06v69.61h74.66c0-38.44-31.16-69.61-69.61-69.61h.01Z" stroke="#000" stroke-width="2" stroke-miterlimit="10"/><path d="M91.53 247.66c5.296 0 9.59-4.294 9.59-9.59s-4.294-9.59-9.59-9.59-9.59 4.294-9.59 9.59 4.294 9.59 9.59 9.59ZM459.34 247.66c5.296 0 9.59-4.294 9.59-9.59s-4.294-9.59-9.59-9.59-9.59 4.294-9.59 9.59 4.294 9.59 9.59 9.59ZM339.24 247.66c5.296 0 9.59-4.294 9.59-9.59s-4.294-9.59-9.59-9.59a9.59 9.59 0 0 0-9.59 9.59 9.59 9.59 0 0 0 9.59 9.59ZM13.62 246.37H0v4h13.62v-4Z" fill="#000"/><path d="m412.1 186.83 19.92-24.65M414.94 195.01l27.44-32.83" stroke="#000" stroke-miterlimit="10"/><path d="M119.08 1H83.33M79.89 1H67.87M41.23 238.07H30.96M368.62 33.91s2.56-17.31-9.78-17.31H185.09M173.7 16.6h-25.16M139.99 16.6h-14.24" stroke="#000" stroke-width="2" stroke-miterlimit="10"/></g><defs><clipPath id="a"><path fill="#fff" d="M0 0h500v250.37H0z"/></clipPath></defs></svg>