<svg width="508" height="333" fill="none" xmlns="http://www.w3.org/2000/svg"><g clip-path="url(#a)"><path d="m443.455 294.061-90.775 34.656 2.253-178.375 90.775-34.667-2.253 178.386ZM354.932 150.342l-267.288-3.376-2.254 178.386 267.289 3.375 2.253-178.385ZM354.572 150.337 92.6 146.448l110.366-33.839 239.856 2.65-88.25 35.078Z" fill="#fff" stroke="#000" stroke-width="2" stroke-miterlimit="10"/><path d="M415.059 240.498 355.62 149.77l89.922-34.477 57.777 90.127-88.26 35.078ZM266.362 241.64l-241.79-3.054 66.904-90.962 261.854 2.927-86.968 91.089Z" fill="#CFC2F2" stroke="#000" stroke-width="2" stroke-miterlimit="10"/><path d="m202.967 112.609-.458 36.257" stroke="#000" stroke-width="2" stroke-miterlimit="10"/><path d="M218.792 59.245a3.62 3.62 0 1 0 .092-7.238 3.62 3.62 0 0 0-.092 7.238ZM418.359 116.88a3.62 3.62 0 1 0 .091-7.24 3.62 3.62 0 0 0-.091 7.24ZM149.194 111.67a1.81 1.81 0 1 0 .046-3.62 1.81 1.81 0 0 0-.046 3.62ZM237.771 79.246a1.81 1.81 0 1 0 .046-3.62 1.81 1.81 0 0 0-.046 3.62ZM137.12 6.63a1.81 1.81 0 1 0 .046-3.619 1.81 1.81 0 0 0-.046 3.618ZM294.955 38.935a1.81 1.81 0 1 0 .046-3.618 1.81 1.81 0 0 0-.046 3.618ZM313.892 82.018a1.81 1.81 0 1 0 .046-3.62 1.81 1.81 0 0 0-.046 3.62ZM228.063 124.947a1.81 1.81 0 1 0 .047-3.619 1.81 1.81 0 0 0-.047 3.619ZM376.054 44.23a3.62 3.62 0 1 0 .091-7.239 3.62 3.62 0 0 0-.091 7.239Z" fill="#fff" stroke="#000" stroke-miterlimit="10"/><path d="M130.959 28.803c4.492-.173 8.5 3.208 10.459 7.253 1.959 4.045 2.291 8.65 2.584 13.134l1.36 20.629c.226 3.483.481 7.046 1.921 10.225 2.481 5.462 7.96 8.78 12.592 12.6 12.867 10.603 20.416 27.36 19.846 44.024M340.956 125.453c3.32-4.748 1.861-11.987 4.675-16.992 2.691-4.797 8.306-7.536 13.703-9.658 7.689-3.023 13.34-7.822 16.18-15.717.995-2.787 1.542-5.74 2.906-8.374 1.753-3.398 4.857-6.069 8.472-7.293 2.501-.849 4.601-3.162 5.432-5.672 1.144-3.456.322-7.257.878-10.86.86-5.54 5.763-10.538 11.361-10.337M400.339 99.411c.485 4.357-3.203 8.15-7.177 10-3.973 1.85-8.452 2.504-12.328 4.565-4.712 2.511-8.241 7.116-9.447 12.312M153.708 138.269c-6.919-2.487-9.405-8.359-10.401-15.062-.424-2.856-1.743-6.103-4.565-6.738" stroke="#000" stroke-width="2" stroke-miterlimit="10"/><path d="M312.482 49.547c-7.325 3.458-14.554 6.497-21.411 10.221-5.086 2.766-9.909 6.135-14.435 9.758-4.101 3.289-4.144 6.679-1.048 10.978 3.636 5.056 8.438 8.907 13.484 12.371 5.473 3.76 11.231 7.123 16.776 10.783 1.249.826 2.344 2.05 3.168 3.31.412.626.395 2.015-.053 2.59-.467.604-1.722.988-2.541.868-1.298-.187-2.58-.753-3.763-1.378-10.927-5.838-21.833-11.736-32.75-17.605-.258-.133-.527-.246-.954-.452-1.375 3.533-1.601 7.19-.755 10.621 1.703 6.943 3.907 13.761 5.951 20.617.556 1.857 1.344 3.648 1.82 5.524.191.732.125 1.981-.329 2.326-.626.472-1.949.695-2.595.337-1.261-.706-2.428-1.751-3.344-2.892-5.189-6.447-8.374-13.947-10.926-21.71-4.69-14.27-7.917-28.842-7.316-43.976.613-15.224 3.501-30.098 7.516-44.759.797-2.92 1.654-5.83 2.92-8.674l-.061 4.82c-.105 8.3-.32 16.607-.264 24.909.018 2.49.445 5.096 1.246 7.456 2.197 6.568 7.572 10.156 14.469 9.603 3.394-.267 6.736-1.204 10.104-1.812 7.187-1.31 14.364-2.629 21.561-3.878 1.072-.187 2.22-.002 3.51.014l.02.03Z" fill="#593DA6"/><path d="M274.298 52.696c-4.609-.099-8.311-3.946-8.262-8.595.06-4.72 3.968-8.481 8.707-8.391 4.609.098 8.311 3.945 8.252 8.595-.06 4.73-3.957 8.48-8.697 8.38v.01Z" fill="#593DA6"/></g><defs><clipPath id="a"><path fill="#fff" transform="translate(5.07227 0.841309) rotate(0.723609)" d="M0 0h502.29v324.93H0z"/></clipPath></defs></svg>