<svg width="292" height="294" fill="none" xmlns="http://www.w3.org/2000/svg"><g clip-path="url(#a)"><path d="m110.23 253.84 37.23 3-26.96-25.17-10.27 22.17Z" fill="#CFC2F2"/><path d="m145.49 165.43 51.29 48.78c7.4 7.39 7.42 19.38.03 26.78l-19.33 19.37c-7.39 7.4-19.38 7.42-26.78.03l-51.29-48.78 46.08-46.18ZM103.241 73.642l17.176-17.218c4.541-4.552 11.917-4.554 16.462-.02l37.777 37.685c4.552 4.541 4.554 11.916.02 16.462L157.5 127.768l-54.259-54.126ZM140.455 59.957l22.345-22.4c4.541-4.552 11.917-4.554 16.462-.02l14.159 14.125c4.552 4.54 4.554 11.916.02 16.461l-22.345 22.4-30.641-30.566Z" stroke="#6A47D6" stroke-width="2" stroke-miterlimit="10"/><path d="M183.765 42.044 225.094.614a2.11 2.11 0 0 1 2.984-.004l2.153 2.147c.821.819.83 2.155.003 2.984l-41.329 41.43-5.133-5.12-.007-.007Z" fill="#6A47D6"/><path d="m79.67 71.68-62.19 62.34c-22 22.05-21.96 57.77.09 79.77 22.05 22 57.77 21.96 79.77-.09l62.19-62.34c5.95-5.97 5.94-15.63-.03-21.58l-58.26-58.12c-5.97-5.95-15.63-5.94-21.58.03l.01-.01ZM66.73 195.03a4.584 4.584 0 0 1 0 6.49c-1.8 1.8-4.69 1.8-6.49 0l-30.52-30.44a4.584 4.584 0 0 1 0-6.49c1.8-1.8 4.69-1.8 6.49 0l30.52 30.44Zm14.49-14.53a4.584 4.584 0 0 1 0 6.49 4.584 4.584 0 0 1-6.49 0l-30.52-30.44a4.584 4.584 0 0 1 0-6.49 4.584 4.584 0 0 1 6.49 0l30.52 30.44Zm14.49-14.53a4.584 4.584 0 0 1 0 6.49 4.584 4.584 0 0 1-6.49 0L58.7 142.02a4.584 4.584 0 0 1 0-6.49 4.584 4.584 0 0 1 6.49 0l30.52 30.44Z" stroke="#6A47D6" stroke-width="2" stroke-miterlimit="10"/><path d="m162.75 182.65-17.26-17.22 5.41-5.43 10.51 7.36c5.1 3.57 5.74 10.88 1.34 15.29Z" fill="#6A47D6"/><path d="m251.06 124.1-9-2.31c-.76-.2-1.54.27-1.74 1.03l-.28 1.1a2.552 2.552 0 0 1-3.11 1.84l-2.59-.66a2.552 2.552 0 0 1-1.84-3.11l.28-1.1c.2-.76-.27-1.54-1.03-1.74l-9-2.31c-1.93-.5-3.9.67-4.4 2.6l-1.68 6.56c-.49 1.93.67 3.9 2.6 4.4l7.21 1.85-4.68 18.3 6.34-1.95c.42-.13.86.11.99.53.13.42-.11.86-.53.99l-7.27 2.24-1.03 4.03 7.91-2.44c.42-.13.86.11.99.53.13.42-.11.86-.53.99l-8.84 2.72-1.93 7.54c-.11.42-.04.87.19 1.25l4.24 6.87c.35.57 1.09.76 1.68.43l7.02-3.98c.38-.22.66-.58.77-1l8.57-33.48 7.21 1.85c1.93.49 3.9-.67 4.4-2.6l1.68-6.56c.49-1.93-.67-3.9-2.6-4.4v-.01Zm-1.68 9.29c-.22.85-1.09 1.37-1.94 1.15l-2.39-.61a.804.804 0 0 1-.58-.97c.11-.43.54-.68.97-.58l1.7.44c.38.1.76-.13.86-.51l.44-1.7c.11-.43.54-.68.97-.58.43.1.68.54.58.97l-.61 2.39ZM274.3 67.87l-8.78 4.36a1.51 1.51 0 0 0-.68 2.02l.53 1.07c.66 1.33.12 2.95-1.21 3.61l-2.52 1.25a2.69 2.69 0 0 1-3.61-1.22l-.53-1.07a1.51 1.51 0 0 0-2.02-.68l-8.78 4.36a3.823 3.823 0 0 0-1.72 5.11l3.18 6.4a3.823 3.823 0 0 0 5.11 1.72l7.03-3.49 8.86 17.84 3.72-5.93a.84.84 0 1 1 1.42.9l-4.27 6.8 1.95 3.92 4.64-7.4a.84.84 0 1 1 1.42.9l-5.19 8.27 3.65 7.35c.21.41.57.73 1.01.86l8.11 2.56c.68.21 1.4-.15 1.64-.81l2.86-8.01c.15-.43.13-.91-.08-1.33l-16.21-32.64 7.03-3.49a3.823 3.823 0 0 0 1.72-5.11l-3.18-6.4a3.823 3.823 0 0 0-5.11-1.72h.01Zm5.05 8.58c.41.83.07 1.84-.76 2.26l-2.33 1.16c-.42.21-.92.04-1.13-.38a.838.838 0 0 1 .38-1.13l1.66-.82c.37-.18.52-.63.33-1l-.82-1.66a.838.838 0 0 1 .38-1.13c.42-.21.92-.04 1.13.38l1.16 2.33v-.01Z" stroke="#000" stroke-width="2" stroke-miterlimit="10"/><path d="m177.418 188.464-18.343 16.898a5.859 5.859 0 0 0-.34 8.28l1.382 1.5a5.859 5.859 0 0 0 8.28.34l18.344-16.897a5.862 5.862 0 0 0 .34-8.281l-1.382-1.5a5.862 5.862 0 0 0-8.281-.34Z" fill="#CFC2F2" stroke="#000" stroke-width="2" stroke-miterlimit="10"/><path d="m186.246 200.469-16.437 12.713a3.51 3.51 0 0 0-.629 4.924l2.086 2.697a3.51 3.51 0 0 0 4.924.629l16.437-12.713a3.51 3.51 0 0 0 .629-4.924l-2.086-2.697a3.51 3.51 0 0 0-4.924-.629ZM169.546 177.232l-21.322 19.642a5.86 5.86 0 0 0-.34 8.28l1.382 1.5a5.86 5.86 0 0 0 8.281.34l21.322-19.641a5.86 5.86 0 0 0 .34-8.28l-1.382-1.501a5.862 5.862 0 0 0-8.281-.34Z" fill="#CFC2F2" stroke="#000" stroke-width="2" stroke-miterlimit="10"/><path d="m159.155 165.544-16.088 19.058a5.86 5.86 0 0 0 .698 8.257l1.559 1.316a5.86 5.86 0 0 0 8.258-.697l16.088-19.058a5.86 5.86 0 0 0-.698-8.258l-1.559-1.316a5.86 5.86 0 0 0-8.258.698Z" fill="#CFC2F2" stroke="#000" stroke-width="2" stroke-miterlimit="10"/><path d="M115.64 249.31s6.13-6.4 7.37-11.65c.99-4.17-.96-7.79-5.45-13.2a1.73 1.73 0 0 1-.13-2.03l2.22-3.46a4.245 4.245 0 0 1 5.57-1.45l5.19 3.33c2.43 1.3 5.43.86 7.38-1.09l.91-.91c2.8-2.8 2.33-7.45-.96-9.64l-6.01-3.99c-6.43-4.27-14.85-3.92-20.95.81-3.68 2.85-7.24 6.18-8.81 9.31-3.86 7.72-1.71 24.56-3.18 29.22-1.47 4.66-25.78 26.82-25.78 26.82l36.74 21.08 20.23-29.62c1.42-2.08 3.52-3.62 5.93-4.36l11.55-1.65" fill="#CFC2F2"/><path d="M115.64 249.31s6.13-6.4 7.37-11.65c.99-4.17-.96-7.79-5.45-13.2a1.73 1.73 0 0 1-.13-2.03l2.22-3.46a4.245 4.245 0 0 1 5.57-1.45l5.19 3.33c2.43 1.3 5.43.86 7.38-1.09l.91-.91c2.8-2.8 2.33-7.45-.96-9.64l-6.01-3.99c-6.43-4.27-14.85-3.92-20.95.81-3.68 2.85-7.24 6.18-8.81 9.31-3.86 7.72-1.71 24.56-3.18 29.22-1.47 4.66-25.78 26.82-25.78 26.82l36.74 21.08 20.23-29.62c1.42-2.08 3.52-3.62 5.93-4.36l11.55-1.65" stroke="#000" stroke-width="2" stroke-miterlimit="10"/></g><defs><clipPath id="a"><path fill="#fff" d="M0 0h291.21v293.8H0z"/></clipPath></defs></svg>