<svg width="501" height="396" fill="none" xmlns="http://www.w3.org/2000/svg"><g clip-path="url(#a)"><path d="M499.72 27.07H1.2v367.11h498.52V27.07Z" fill="#fff" stroke="#000" stroke-width="2" stroke-miterlimit="10"/><path d="M500 25.3H0v35.13h500V25.3Z" fill="#CFC2F2"/><path d="M170.47 89.43H39V220.9h131.47V89.43Z" fill="#593DA6"/><path d="M315.39 89.43H183.92V220.9h131.47V89.43ZM460.56 89.43H329.09V220.9h131.47V89.43ZM170.35 233.9H38.88v131.47h131.47V233.9ZM315.26 233.9H183.79v131.47h131.47V233.9ZM460.43 233.9H328.96v131.47h131.47V233.9Z" stroke="#000" stroke-miterlimit="10"/><path d="M116.52.5H83.33v59.93h33.19V.5ZM416.67.5h-33.19v59.93h33.19V.5Z" fill="#fff" stroke="#000" stroke-miterlimit="10"/></g><defs><clipPath id="a"><path fill="#fff" d="M0 0h500.72v395.17H0z"/></clipPath></defs></svg>